<svg version="1.1" id="Layer_1" xmlns="http://www.w3.org/2000/svg" xmlns:xlink="http://www.w3.org/1999/xlink" x="0px" y="0px"
	 width="100%" viewBox="0 0 2000 2000" enable-background="new 0 0 2000 2000" xml:space="preserve">
<path fill="none" opacity="1.000000" stroke="none" 
	d="
M1.000000,2000.000000 
	C1.000000,1333.709595 1.000000,667.419250 1.000000,1.064460 
	C667.580688,1.064460 1334.161377,1.064460 2001.000000,1.064460 
	C2001.000000,667.037598 2001.000000,1333.075195 2000.556396,1999.556396 
	C1333.741821,2000.000000 667.370911,2000.000000 1.000000,2000.000000 
M5.925855,482.923492 
	C5.897949,484.755981 5.848152,486.588470 5.845248,488.420990 
	C5.570057,662.060181 5.133515,835.699280 5.073246,1009.338562 
	C5.013728,1180.814331 5.335186,1352.290161 5.488020,1523.765991 
	C5.495671,1532.350220 5.489004,1540.934326 5.489004,1549.518555 
	C5.970642,1549.519531 6.452281,1549.520508 6.933919,1549.521484 
	C6.933919,1540.978027 6.925027,1532.434448 6.935209,1523.890991 
	C7.272244,1241.098511 7.692273,958.306091 7.888292,675.513489 
	C7.932992,611.026062 7.204694,546.538086 7.035896,481.126038 
	C7.035896,473.163330 7.035896,465.200623 7.035896,457.237885 
	C6.709916,457.237457 6.383937,457.237030 6.057957,457.236603 
	C6.057957,465.488892 6.057957,473.741211 5.925855,482.923492 
M1483.493652,1044.989624 
	C1464.699585,1074.137817 1444.629150,1102.377808 1420.741455,1127.591797 
	C1337.415894,1215.543335 1233.659790,1258.466919 1113.932129,1264.824463 
	C1081.016968,1266.572266 1047.961670,1265.681274 1014.970764,1265.997803 
	C1013.216309,1266.014648 1011.461670,1266.000000 1009.590332,1266.000000 
	C1009.590332,1276.162720 1009.525879,1285.660522 1009.601746,1295.157349 
	C1009.892639,1331.537598 1008.120422,1367.741943 1000.978210,1403.537720 
	C989.922974,1458.944824 967.959595,1509.613525 935.201599,1555.621216 
	C898.443237,1607.247559 852.098633,1649.047729 801.132019,1686.048584 
	C775.418579,1704.716187 749.289368,1722.814575 723.715881,1741.669067 
	C717.386658,1746.335571 711.837341,1752.455322 707.091736,1758.779175 
	C700.426331,1767.661255 701.943237,1776.986328 710.692078,1783.793823 
	C715.757202,1787.734985 721.269104,1791.710571 727.235901,1793.769409 
	C744.470398,1799.716064 761.772156,1805.892456 779.523254,1809.838257 
	C834.648193,1822.092285 890.784302,1826.582642 947.068848,1828.739868 
	C990.035828,1830.386597 1033.020142,1829.829468 1075.986084,1827.239380 
	C1124.342896,1824.324341 1171.887085,1816.823486 1218.615112,1804.088745 
	C1313.478882,1778.235718 1402.230835,1738.892578 1483.794678,1683.749756 
	C1540.092163,1645.689087 1590.524658,1601.336914 1630.471680,1545.885986 
	C1697.045654,1453.473633 1727.637207,1351.259888 1714.125366,1237.149414 
	C1707.837402,1184.047485 1691.452759,1134.096436 1666.448975,1086.932617 
	C1642.093018,1040.990601 1610.148193,1000.567017 1574.814453,962.750549 
	C1565.655029,952.947449 1555.350098,944.095093 1544.855591,935.701050 
	C1537.846802,930.095154 1532.436646,933.638611 1530.847168,942.526062 
	C1529.106323,952.261230 1527.150513,962.186707 1523.487915,971.306152 
	C1513.115112,997.134216 1498.800171,1020.946289 1483.493652,1044.989624 
M701.914917,1579.816895 
	C701.974182,1580.712402 702.033447,1581.607788 702.127869,1583.033936 
	C714.190918,1574.763062 725.706055,1566.912720 737.175110,1558.995728 
	C773.243774,1534.097412 803.896729,1504.003662 826.514282,1466.136719 
	C841.849060,1440.462891 853.718506,1413.456055 856.068726,1383.319702 
	C858.580200,1351.116821 860.684570,1318.856201 861.849915,1286.580566 
	C863.533386,1239.955200 864.238403,1193.293945 865.292053,1146.646484 
	C865.475159,1138.538696 865.317993,1130.423096 865.317993,1121.000244 
	C885.395691,1121.000244 904.360413,1121.288574 923.313843,1120.948608 
	C992.790039,1119.702759 1062.265503,1118.378540 1131.733643,1116.757812 
	C1145.028198,1116.447632 1158.325562,1114.985352 1171.555786,1113.477783 
	C1191.461182,1111.209473 1209.724854,1103.850342 1227.545654,1094.948608 
	C1257.109009,1080.181274 1283.952271,1061.657227 1307.630127,1038.605469 
	C1337.633301,1009.395752 1361.007690,975.460083 1379.677734,938.071899 
	C1390.172729,917.054993 1396.771484,895.105469 1397.084595,871.590332 
	C1397.550415,836.609924 1397.629150,801.623169 1397.683472,766.638794 
	C1397.737549,731.847046 1388.564331,699.399109 1373.084473,668.380005 
	C1345.631958,613.369995 1305.837891,569.571472 1254.157837,536.610535 
	C1223.608398,517.126404 1190.376587,504.123322 1154.046265,501.250092 
	C1125.337646,498.979584 1096.494507,497.467468 1067.703613,497.341644 
	C947.884460,496.817963 828.062561,496.946472 708.241638,496.835999 
	C706.282715,496.834167 704.323853,496.835785 701.914978,496.835785 
	C701.914978,857.785278 701.914978,1218.365845 701.914917,1579.816895 
M461.179718,1671.321167 
	C491.131683,1693.103394 523.013611,1711.619629 556.368774,1728.257812 
	C556.368774,1474.191284 556.368774,1220.793945 556.368774,967.345032 
	C393.129974,967.345032 230.127670,967.345032 67.022514,967.345032 
	C68.349152,980.116699 69.774635,992.523804 70.903519,1004.957825 
	C74.126472,1040.457153 78.855721,1075.746704 86.293549,1110.612793 
	C105.601433,1201.121826 138.438431,1286.517700 183.846375,1367.118774 
	C218.544418,1428.709106 259.771240,1485.580078 307.371490,1537.824951 
	C353.239838,1588.168579 404.995361,1631.757568 461.179718,1671.321167 
M1518.784668,445.828583 
	C1509.356567,415.207275 1494.542358,387.240906 1476.374878,361.027679 
	C1447.931152,319.987823 1412.163330,286.411652 1370.563354,259.017151 
	C1324.125244,228.436523 1274.033081,206.460220 1219.019653,196.877289 
	C1184.784302,190.913727 1150.127319,189.659286 1115.445557,190.069443 
	C1081.268677,190.473633 1047.060425,192.141037 1013.678955,199.836960 
	C952.848267,213.861145 898.779297,242.641769 848.158630,278.413177 
	C818.778625,299.174683 794.031494,325.232422 767.531372,349.283600 
	C767.270691,349.520172 767.332458,350.111938 767.180481,350.841248 
	C768.381287,350.841248 769.341492,350.839935 770.301758,350.841431 
	C804.629150,350.894318 838.957397,350.810333 873.283752,351.027039 
	C965.907410,351.611755 1058.580444,349.557251 1151.098877,355.998016 
	C1172.213257,357.467926 1193.221680,359.891052 1213.660889,365.578552 
	C1299.459351,389.453033 1371.314819,435.828949 1431.503052,500.964691 
	C1460.165894,531.983582 1482.771729,567.174316 1503.026733,604.030457 
	C1506.700195,610.714600 1511.004150,617.075623 1515.366699,623.342163 
	C1516.541382,625.029297 1519.245483,627.011353 1520.806030,626.693054 
	C1522.412231,626.365601 1524.178833,623.560303 1524.656616,621.549561 
	C1526.380615,614.294434 1528.681885,606.935242 1528.802490,599.583191 
	C1529.258179,571.783752 1529.602051,543.950684 1528.714600,516.170898 
	C1527.965698,492.730560 1525.472168,469.343872 1518.784668,445.828583 
M1651.990967,632.505310 
	C1636.667114,621.175781 1621.343262,609.846252 1605.150635,597.874512 
	C1603.431274,602.293640 1601.879150,605.237610 1601.143799,608.373169 
	C1599.057617,617.267822 1597.420410,626.266907 1595.399658,635.177917 
	C1589.755127,660.069824 1581.034668,683.938416 1570.274658,707.007385 
	C1552.218628,745.719177 1544.141724,786.112427 1548.890015,829.277771 
	C1568.343872,833.438232 1588.426147,838.105225 1608.661499,841.969604 
	C1636.053345,847.200500 1663.839233,848.914490 1691.666626,849.669861 
	C1723.859863,850.543884 1755.954712,849.204712 1787.888306,844.715881 
	C1819.389160,840.287842 1846.846558,826.772522 1871.604004,807.378967 
	C1883.175537,798.314453 1893.846069,788.244019 1901.208008,775.237122 
	C1908.888428,761.667664 1905.689575,750.964966 1891.875854,743.750305 
	C1890.699585,743.135864 1889.542358,742.421509 1888.290405,742.025085 
	C1872.318115,736.968140 1856.474121,731.429443 1840.316650,727.049500 
	C1804.817993,717.426453 1769.920776,706.421021 1737.129028,689.333313 
	C1706.873291,673.567078 1679.396362,653.763000 1651.990967,632.505310 
z"/>
<path fill="#707070" opacity="1.000000" stroke="none" 
	d="
M1.000000,2000.500000 
	C667.370911,2000.000000 1333.741821,2000.000000 2000.556396,2000.000000 
	C2000.833374,2000.333374 2000.684204,2000.943726 2000.497192,2000.955444 
	C1999.169067,2001.038818 1997.833374,2001.000000 1996.500000,2001.000000 
	C1331.333374,2001.000000 666.166687,2001.000000 1.000000,2000.500000 
z"/>
<path fill="#FFD700" opacity="1.000000" stroke="none" 
	d="
M1483.701294,1044.691162 
	C1498.800171,1020.946289 1513.115112,997.134216 1523.487915,971.306152 
	C1527.150513,962.186707 1529.106323,952.261230 1530.847168,942.526062 
	C1532.436646,933.638611 1537.846802,930.095154 1544.855591,935.701050 
	C1555.350098,944.095093 1565.655029,952.947449 1574.814453,962.750549 
	C1610.148193,1000.567017 1642.093018,1040.990601 1666.448975,1086.932617 
	C1691.452759,1134.096436 1707.837402,1184.047485 1714.125366,1237.149414 
	C1727.637207,1351.259888 1697.045654,1453.473633 1630.471680,1545.885986 
	C1590.524658,1601.336914 1540.092163,1645.689087 1483.794678,1683.749756 
	C1402.230835,1738.892578 1313.478882,1778.235718 1218.615112,1804.088745 
	C1171.887085,1816.823486 1124.342896,1824.324341 1075.986084,1827.239380 
	C1033.020142,1829.829468 990.035828,1830.386597 947.068848,1828.739868 
	C890.784302,1826.582642 834.648193,1822.092285 779.523254,1809.838257 
	C761.772156,1805.892456 744.470398,1799.716064 727.235901,1793.769409 
	C721.269104,1791.710571 715.757202,1787.734985 710.692078,1783.793823 
	C701.943237,1776.986328 700.426331,1767.661255 707.091736,1758.779175 
	C711.837341,1752.455322 717.386658,1746.335571 723.715881,1741.669067 
	C749.289368,1722.814575 775.418579,1704.716187 801.132019,1686.048584 
	C852.098633,1649.047729 898.443237,1607.247559 935.201599,1555.621216 
	C967.959595,1509.613525 989.922974,1458.944824 1000.978210,1403.537720 
	C1008.120422,1367.741943 1009.892639,1331.537598 1009.601746,1295.157349 
	C1009.525879,1285.660522 1009.590332,1276.162720 1009.590332,1266.000000 
	C1011.461670,1266.000000 1013.216309,1266.014648 1014.970764,1265.997803 
	C1047.961670,1265.681274 1081.016968,1266.572266 1113.932129,1264.824463 
	C1233.659790,1258.466919 1337.415894,1215.543335 1420.741455,1127.591797 
	C1444.629150,1102.377808 1464.699585,1074.137817 1483.701294,1044.691162 
z"/>
<path fill="#00E5FF" opacity="1.000000" stroke="none" 
	d="
M701.914917,1579.381714 
	C701.914978,1218.365845 701.914978,857.785278 701.914978,496.835785 
	C704.323853,496.835785 706.282715,496.834167 708.241638,496.835999 
	C828.062561,496.946472 947.884460,496.817963 1067.703613,497.341644 
	C1096.494507,497.467468 1125.337646,498.979584 1154.046265,501.250092 
	C1190.376587,504.123322 1223.608398,517.126404 1254.157837,536.610535 
	C1305.837891,569.571472 1345.631958,613.369995 1373.084473,668.380005 
	C1388.564331,699.399109 1397.737549,731.847046 1397.683472,766.638794 
	C1397.629150,801.623169 1397.550415,836.609924 1397.084595,871.590332 
	C1396.771484,895.105469 1390.172729,917.054993 1379.677734,938.071899 
	C1361.007690,975.460083 1337.633301,1009.395752 1307.630127,1038.605469 
	C1283.952271,1061.657227 1257.109009,1080.181274 1227.545654,1094.948608 
	C1209.724854,1103.850342 1191.461182,1111.209473 1171.555786,1113.477783 
	C1158.325562,1114.985352 1145.028198,1116.447632 1131.733643,1116.757812 
	C1062.265503,1118.378540 992.790039,1119.702759 923.313843,1120.948608 
	C904.360413,1121.288574 885.395691,1121.000244 865.317993,1121.000244 
	C865.317993,1130.423096 865.475159,1138.538696 865.292053,1146.646484 
	C864.238403,1193.293945 863.533386,1239.955200 861.849915,1286.580566 
	C860.684570,1318.856201 858.580200,1351.116821 856.068726,1383.319702 
	C853.718506,1413.456055 841.849060,1440.462891 826.514282,1466.136719 
	C803.896729,1504.003662 773.243774,1534.097412 737.175110,1558.995728 
	C725.706055,1566.912720 714.190918,1574.763062 702.127869,1583.033936 
	C702.033447,1581.607788 701.974182,1580.712402 701.914917,1579.381714 
M864.163025,697.499939 
	C864.163025,787.237976 864.163025,876.976013 864.163025,967.000244 
	C865.880920,967.000244 867.026428,967.001465 868.171997,967.000061 
	C913.323608,966.944153 958.480469,967.295166 1003.625122,966.705933 
	C1041.240112,966.215027 1078.930908,966.163757 1116.234375,959.989380 
	C1139.811157,956.086975 1162.202026,949.215454 1181.221802,934.021729 
	C1197.802246,920.776550 1210.745483,904.345154 1222.181763,886.618408 
	C1228.795410,876.367310 1232.682495,865.175842 1234.037476,853.103088 
	C1237.133179,825.518921 1236.473999,797.877930 1234.788330,770.260559 
	C1233.741455,753.106262 1228.088989,737.448914 1217.585938,723.699585 
	C1212.939209,717.616638 1208.266357,711.551086 1203.480469,705.577698 
	C1184.233887,681.555481 1159.512695,666.477844 1129.412109,659.980896 
	C1095.990845,652.767212 1062.022827,651.525635 1028.071411,651.142578 
	C975.262085,650.546814 922.442200,650.887939 869.626831,650.832336 
	C867.881409,650.830505 866.135925,650.832153 864.162781,650.832153 
	C864.162781,666.550293 864.162781,681.525085 864.163025,697.499939 
z"/>
<path fill="#FFD700" opacity="1.000000" stroke="none" 
	d="
M460.874756,1671.131348 
	C404.995361,1631.757568 353.239838,1588.168579 307.371490,1537.824951 
	C259.771240,1485.580078 218.544418,1428.709106 183.846375,1367.118774 
	C138.438431,1286.517700 105.601433,1201.121826 86.293549,1110.612793 
	C78.855721,1075.746704 74.126472,1040.457153 70.903519,1004.957825 
	C69.774635,992.523804 68.349152,980.116699 67.022514,967.345032 
	C230.127670,967.345032 393.129974,967.345032 556.368774,967.345032 
	C556.368774,1220.793945 556.368774,1474.191284 556.368774,1728.257812 
	C523.013611,1711.619629 491.131683,1693.103394 460.874756,1671.131348 
z"/>
<path fill="#FFD700" opacity="1.000000" stroke="none" 
	d="
M1518.876221,446.223114 
	C1525.472168,469.343872 1527.965698,492.730560 1528.714600,516.170898 
	C1529.602051,543.950684 1529.258179,571.783752 1528.802490,599.583191 
	C1528.681885,606.935242 1526.380615,614.294434 1524.656616,621.549561 
	C1524.178833,623.560303 1522.412231,626.365601 1520.806030,626.693054 
	C1519.245483,627.011353 1516.541382,625.029297 1515.366699,623.342163 
	C1511.004150,617.075623 1506.700195,610.714600 1503.026733,604.030457 
	C1482.771729,567.174316 1460.165894,531.983582 1431.503052,500.964691 
	C1371.314819,435.828949 1299.459351,389.453033 1213.660889,365.578552 
	C1193.221680,359.891052 1172.213257,357.467926 1151.098877,355.998016 
	C1058.580444,349.557251 965.907410,351.611755 873.283752,351.027039 
	C838.957397,350.810333 804.629150,350.894318 770.301758,350.841431 
	C769.341492,350.839935 768.381287,350.841248 767.180481,350.841248 
	C767.332458,350.111938 767.270691,349.520172 767.531372,349.283600 
	C794.031494,325.232422 818.778625,299.174683 848.158630,278.413177 
	C898.779297,242.641769 952.848267,213.861145 1013.678955,199.836960 
	C1047.060425,192.141037 1081.268677,190.473633 1115.445557,190.069443 
	C1150.127319,189.659286 1184.784302,190.913727 1219.019653,196.877289 
	C1274.033081,206.460220 1324.125244,228.436523 1370.563354,259.017151 
	C1412.163330,286.411652 1447.931152,319.987823 1476.374878,361.027679 
	C1494.542358,387.240906 1509.356567,415.207275 1518.876221,446.223114 
z"/>
<path fill="#FFD700" opacity="1.000000" stroke="none" 
	d="
M1652.267944,632.731506 
	C1679.396362,653.763000 1706.873291,673.567078 1737.129028,689.333313 
	C1769.920776,706.421021 1804.817993,717.426453 1840.316650,727.049500 
	C1856.474121,731.429443 1872.318115,736.968140 1888.290405,742.025085 
	C1889.542358,742.421509 1890.699585,743.135864 1891.875854,743.750305 
	C1905.689575,750.964966 1908.888428,761.667664 1901.208008,775.237122 
	C1893.846069,788.244019 1883.175537,798.314453 1871.604004,807.378967 
	C1846.846558,826.772522 1819.389160,840.287842 1787.888306,844.715881 
	C1755.954712,849.204712 1723.859863,850.543884 1691.666626,849.669861 
	C1663.839233,848.914490 1636.053345,847.200500 1608.661499,841.969604 
	C1588.426147,838.105225 1568.343872,833.438232 1548.890015,829.277771 
	C1544.141724,786.112427 1552.218628,745.719177 1570.274658,707.007385 
	C1581.034668,683.938416 1589.755127,660.069824 1595.399658,635.177917 
	C1597.420410,626.266907 1599.057617,617.267822 1601.143799,608.373169 
	C1601.879150,605.237610 1603.431274,602.293640 1605.150635,597.874512 
	C1621.343262,609.846252 1636.667114,621.175781 1652.267944,632.731506 
z"/>
<path fill="#EDEDED" opacity="1.000000" stroke="none" 
	d="
M6.832173,482.050354 
	C7.204694,546.538086 7.932992,611.026062 7.888292,675.513489 
	C7.692273,958.306091 7.272244,1241.098511 6.935209,1523.890991 
	C6.925027,1532.434448 6.933919,1540.978027 6.933919,1549.521484 
	C6.452281,1549.520508 5.970642,1549.519531 5.489004,1549.518555 
	C5.489004,1540.934326 5.495671,1532.350220 5.488020,1523.765991 
	C5.335186,1352.290161 5.013728,1180.814331 5.073246,1009.338562 
	C5.133515,835.699280 5.570057,662.060181 5.845248,488.420990 
	C5.848152,486.588470 5.897949,484.755981 6.184258,482.489075 
	C6.442662,482.054657 6.832173,482.050354 6.832173,482.050354 
z"/>
<path fill="#B5B5B5" opacity="1.000000" stroke="none" 
	d="
M6.934034,481.588196 
	C6.832173,482.050354 6.442662,482.054657 6.250309,482.024078 
	C6.057957,473.741211 6.057957,465.488892 6.057957,457.236603 
	C6.383937,457.237030 6.709916,457.237457 7.035896,457.237885 
	C7.035896,465.200623 7.035896,473.163330 6.934034,481.588196 
z"/>
<path fill="none" opacity="1.000000" stroke="none" 
	d="
M864.162903,696.999878 
	C864.162781,681.525085 864.162781,666.550293 864.162781,650.832153 
	C866.135925,650.832153 867.881409,650.830505 869.626831,650.832336 
	C922.442200,650.887939 975.262085,650.546814 1028.071411,651.142578 
	C1062.022827,651.525635 1095.990845,652.767212 1129.412109,659.980896 
	C1159.512695,666.477844 1184.233887,681.555481 1203.480469,705.577698 
	C1208.266357,711.551086 1212.939209,717.616638 1217.585938,723.699585 
	C1228.088989,737.448914 1233.741455,753.106262 1234.788330,770.260559 
	C1236.473999,797.877930 1237.133179,825.518921 1234.037476,853.103088 
	C1232.682495,865.175842 1228.795410,876.367310 1222.181763,886.618408 
	C1210.745483,904.345154 1197.802246,920.776550 1181.221802,934.021729 
	C1162.202026,949.215454 1139.811157,956.086975 1116.234375,959.989380 
	C1078.930908,966.163757 1041.240112,966.215027 1003.625122,966.705933 
	C958.480469,967.295166 913.323608,966.944153 868.171997,967.000061 
	C867.026428,967.001465 865.880920,967.000244 864.163025,967.000244 
	C864.163025,876.976013 864.163025,787.237976 864.162903,696.999878 
z"/>
</svg>